<svg width="33" height="33" viewBox="0 0 33 33" fill="none" xmlns="http://www.w3.org/2000/svg">
<path d="M28.875 27.5H31.625V30.25H1.375V27.5H4.125V4.125C4.125 3.36561 4.74061 2.75 5.5 2.75H27.5C28.2594 2.75 28.875 3.36561 28.875 4.125V27.5ZM26.125 27.5V5.5H6.875V27.5H26.125ZM11 15.125H15.125V17.875H11V15.125ZM11 9.625H15.125V12.375H11V9.625ZM11 20.625H15.125V23.375H11V20.625ZM17.875 20.625H22V23.375H17.875V20.625ZM17.875 15.125H22V17.875H17.875V15.125ZM17.875 9.625H22V12.375H17.875V9.625Z" fill="#C9A96E"/>
</svg>
